# xmcd CD database file
#
# Track frame offsets:
#	150
#	23295
#	43922
#	67150
#	85175
#	97100
#	125620
#	141360
#	163605
#	182567
#	212540
#	232150
#
# Disc length: 3363 seconds
#
# Revision: 0
# Processed by: cddbd v1.5.1PL0 Copyright (c) Steve Scherf et al.
# Submitted via: CDex 1.51
#
DISCID=a90d210c
DTITLE=Harry Allen With John Pizzarelli Trio - Plays The Hits Of Stage and Screen
DYEAR=2004
DGENRE=Jazz
TTITLE0=I Could Write A Book
TTITLE1=You Are Too Beautiful
TTITLE2=Let's Face The Music And Dance
TTITLE3=But Not For Me
TTITLE4=She Was Too Good To Me
TTITLE5=The Song Is Ended
TTITLE6=Moonlight Becomes You
TTITLE7=The Surrey With The Fringe On Top
TTITLE8=Say It Isn't So
TTITLE9=Bei Mir Bist Du Schoen
TTITLE10=Have You Met Miss Jones?
TTITLE11=It's Easy To Remember
EXTD=YEAR: 2004
EXTT0=
EXTT1=
EXTT2=
EXTT3=
EXTT4=
EXTT5=
EXTT6=
EXTT7=
EXTT8=
EXTT9=
EXTT10=
EXTT11=
PLAYORDER=
